HIERARCHY
ROOT Hips
{
 OFFSET 0.000000 0.000000 0.000000
 CHANNELS 6 Xposition Yposition Zposition Yrotation Xrotation Zrotation
 JOINT Chest
 {
  OFFSET 0.000000 9.585900 0.002600
  CHANNELS 3 Yrotation Xrotation Zrotation
  JOINT Chest2
  {
   OFFSET 0.000000 9.601200 -0.005300
   CHANNELS 3 Yrotation Xrotation Zrotation
   JOINT Chest3
   {
    OFFSET 0.000000 9.561800 0.000000
    CHANNELS 3 Yrotation Xrotation Zrotation
    JOINT Chest4
    {
     OFFSET 0.000000 9.552100 0.000000
     CHANNELS 3 Yrotation Xrotation Zrotation
     JOINT Neck
     {
      OFFSET 0.000000 14.453000 0.000000
      CHANNELS 3 Yrotation Xrotation Zrotation
      JOINT Head
      {
       OFFSET 0.000000 8.936500 -0.011300
       CHANNELS 3 Yrotation Xrotation Zrotation
       End Site
       {
        OFFSET 0.000000 17.073600 -0.006000
       }
      }
     }
     JOINT RightCollar
     {
      OFFSET -2.921100 9.558500 0.000000
      CHANNELS 3 Yrotation Xrotation Zrotation
      JOINT RightShoulder
      {
       OFFSET -13.519700 0.000000 0.000000
       CHANNELS 3 Yrotation Xrotation Zrotation
       JOINT RightElbow
       {
        OFFSET 0.000000 -29.696600 0.000000
        CHANNELS 3 Yrotation Xrotation Zrotation
        JOINT RightWrist
        {
         OFFSET 0.000000 -24.004700 0.000000
         CHANNELS 3 Yrotation Xrotation Zrotation
         End Site
         {
          OFFSET 0.000000 -17.728500 0.000000
         }
        }
       }
      }
     }
     JOINT LeftCollar
     {
      OFFSET 2.921100 9.558500 0.000000
      CHANNELS 3 Yrotation Xrotation Zrotation
      JOINT LeftShoulder
      {
       OFFSET 13.519700 0.000000 0.000000
       CHANNELS 3 Yrotation Xrotation Zrotation
       JOINT LeftElbow
       {
        OFFSET 0.000000 -29.696600 0.000000
        CHANNELS 3 Yrotation Xrotation Zrotation
        JOINT LeftWrist
        {
         OFFSET 0.000000 -24.004700 0.000000
         CHANNELS 3 Yrotation Xrotation Zrotation
         End Site
         {
          OFFSET 0.000000 -17.728500 0.000000
         }
        }
       }
      }
     }
    }
   }
  }
 }
 JOINT RightHip
 {
  OFFSET -7.771700 -0.012900 -0.001300
  CHANNELS 3 Yrotation Xrotation Zrotation
  JOINT RightKnee
  {
   OFFSET 0.000000 -40.869800 0.001200
   CHANNELS 3 Yrotation Xrotation Zrotation
   JOINT RightAnkle
   {
    OFFSET 0.000000 -39.717900 0.002100
    CHANNELS 3 Yrotation Xrotation Zrotation
    JOINT RightToe
    {
     OFFSET 0.000000 -4.965400 11.033500
     CHANNELS 3 Yrotation Xrotation Zrotation
     End Site
     {
      OFFSET 0.000000 -1.423100 5.872300
     }
    }
   }
  }
 }
 JOINT LeftHip
 {
  OFFSET 7.771700 -0.012900 -0.001300
  CHANNELS 3 Yrotation Xrotation Zrotation
  JOINT LeftKnee
  {
   OFFSET 0.000000 -40.869800 0.001200
   CHANNELS 3 Yrotation Xrotation Zrotation
   JOINT LeftAnkle
   {
    OFFSET 0.000000 -39.717900 0.002100
    CHANNELS 3 Yrotation Xrotation Zrotation
    JOINT LeftToe
    {
     OFFSET 0.000000 -4.965400 11.033500
     CHANNELS 3 Yrotation Xrotation Zrotation
     End Site
     {
      OFFSET 0.000000 -1.423100 5.872300
     }
    }
   }
  }
 }
}
MOTION
Frames: 13
Frame Time: 0.008333
0.000000 85.388000 0.000000 0.000000 -5.767877 0.000000 0.000000 11.653817 0.000000 0.000000 -5.885947 0.000000 0.000000 -0.000000 0.000000 0.000000 -0.000000 0.000000 0.000000 12.528835 0.000000 0.000000 0.711642 0.000000 0.000000 -0.000000 0.000000 0.000000 0.000000 -90.000000 0.000000 -2.309062 0.000000 0.000000 2.309062 0.000000 0.000000 -0.000000 0.000000 0.000000 -0.000000 90.000000 0.000000 -2.309062 0.000000 0.000000 2.309062 0.000000 0.000000 8.520406 0.000000 0.000000 1.905762 0.000000 -0.000000 -4.658285 0.000000 0.000000 -0.000000 0.000000 0.000000 8.520406 0.000000 0.000000 1.905762 0.000000 -0.000000 -4.658285 0.000000 0.000000 -0.000000 0.000000
-132.349720 51.796309 -55.535564 176.160927 -15.900136 1.337190 -1.936676 13.648898 1.223571 -0.155617 1.155038 0.155449 -0.266085 1.911604 0.264150 -1.564756 12.204075 1.551600 -3.440212 18.677346 -1.649925 -3.279177 -5.966910 -0.968057 5.061219 16.571861 9.840106 35.708716 -0.713432 -34.494045 124.276335 -57.197289 -153.594027 2.842317 2.509302 -2.869322 -3.029109 16.247142 -13.599911 -35.595359 2.483990 29.480157 -95.608892 -61.011755 137.766252 11.458953 4.135788 -3.319388 -11.662279 -66.622178 5.926805 -85.043213 81.902410 -92.945875 -4.333770 -7.776346 6.600956 0.293102 -0.807445 0.151353 11.541678 -64.405739 -10.356201 9.201180 85.906997 13.964193 -1.137028 -11.682216 0.952095 0.015963 0.022501 -0.103535
-132.348480 51.795802 -55.533685 176.167846 -15.891009 1.342318 -1.942959 13.667862 1.216070 -0.152554 1.170175 0.153843 -0.264300 1.931979 0.262487 -1.562161 12.222358 1.543490 -3.442321 18.684881 -1.654828 -3.280408 -5.958461 -0.972842 5.072639 16.515696 9.837800 35.759008 -0.658755 -34.523067 124.275295 -57.246466 -153.599272 2.835096 2.478030 -2.896487 -3.041853 16.244137 -13.609625 -35.599551 2.483903 29.513483 -95.614787 -60.981094 137.807576 11.423362 4.207114 -3.403134 -11.669339 -66.634347 5.931961 -85.052298 81.896462 -92.960436 -4.338233 -7.762531 6.595603 0.296093 -0.815078 0.154904 11.461024 -64.420496 -10.312287 9.131058 85.902015 13.872241 -1.105237 -11.656154 0.955588 0.014786 0.022931 -0.099373
-132.347060 51.794642 -55.529261 176.175474 -15.867807 1.346642 -1.942553 13.697630 1.208814 -0.157892 1.130958 0.156458 -0.257837 1.980847 0.258932 -1.560775 12.242052 1.534378 -3.444371 18.692325 -1.657873 -3.282039 -5.950119 -0.975671 5.127808 16.544448 9.802507 35.782019 -0.709066 -34.575059 124.279487 -57.292829 -153.613307 2.827629 2.447452 -2.935172 -3.046792 16.193084 -13.598272 -35.601882 2.499464 29.515705 -95.494665 -60.979885 137.718164 11.420730 4.222711 -3.504354 -11.679047 -66.659712 5.937337 -85.039807 81.893339 -92.947279 -4.340545 -7.753397 6.590077 0.296805 -0.816353 0.154518 11.399825 -64.453467 -10.281672 9.204093 85.893508 13.924142 -1.101144 -11.610374 0.974602 0.019304 0.008364 -0.106371
-132.346351 51.793119 -55.523152 176.194122 -15.836032 1.351962 -1.953240 13.718644 1.199180 -0.158142 1.135032 0.155841 -0.254221 1.983663 0.257732 -1.565070 12.222909 1.532840 -3.446481 18.738684 -1.671048 -3.285085 -5.941071 -0.976699 5.141255 16.530510 9.797274 35.827330 -0.661868 -34.617986 124.282677 -57.332963 -153.632699 2.825771 2.423943 -2.987469 -3.053182 16.183603 -13.598121 -35.602335 2.490674 29.534825 -95.362053 -60.999258 137.600374 11.421312 4.232151 -3.615077 -11.695485 -66.694695 5.937268 -85.032495 81.894807 -92.938591 -4.347952 -7.744838 6.584534 0.303646 -0.812211 0.151342 11.342777 -64.488479 -10.272054 8.981144 85.883497 13.690151 -1.069590 -11.579126 0.967976 0.018839 0.011999 -0.097381
-132.343796 51.792190 -55.518887 176.202986 -15.818115 1.349209 -1.946772 13.750285 1.200911 -0.152862 1.164299 0.153949 -0.260699 1.961254 0.259274 -1.568582 12.206213 1.530154 -3.448977 18.782667 -1.682721 -3.288340 -5.930763 -0.978219 5.152811 16.517463 9.793401 35.865659 -0.618878 -34.663974 124.285690 -57.358195 -153.691645 2.826639 2.414141 -3.017704 -3.074123 16.245757 -13.629357 -35.602606 2.473036 29.598441 -95.212767 -61.015103 137.483743 11.445266 4.167903 -3.667656 -11.729870 -66.713610 5.965308 -85.020012 81.891397 -92.923683 -4.356828 -7.728347 6.573353 0.316318 -0.804942 0.149345 11.204016 -64.513214 -10.190875 8.788675 85.873343 13.479775 -1.012401 -11.559036 0.935255 0.011608 0.020877 -0.083795
-132.343119 51.791313 -55.514413 176.220226 -15.800218 1.354386 -1.939113 13.821437 1.194179 -0.161376 1.134056 0.154543 -0.263375 1.954153 0.258994 -1.558890 12.279596 1.511690 -3.453705 18.737735 -1.670429 -3.291117 -5.918567 -0.980878 5.191903 16.497769 9.769471 35.878274 -0.673216 -34.728199 124.266474 -57.386140 -153.673392 2.817214 2.384989 -3.073866 -3.088536 16.189662 -13.623165 -35.601736 2.473223 29.640452 -95.175700 -61.012303 137.466227 11.449086 4.153593 -3.713196 -11.744346 -66.733378 5.962148 -85.016391 81.891303 -92.921781 -4.355253 -7.722634 6.572134 0.316025 -0.803107 0.146113 11.150530 -64.530011 -10.185200 8.555645 85.860238 13.243715 -0.971703 -11.536069 0.916865 0.009858 0.029123 -0.070347
-132.344234 51.790499 -55.509860 176.237286 -15.782757 1.369386 -1.946656 13.842803 1.175082 -0.158089 1.149093 0.153562 -0.271891 1.924329 0.261026 -1.547424 12.335618 1.495706 -3.457801 18.733006 -1.668122 -3.294778 -5.904160 -0.983805 5.192966 16.442163 9.774756 35.892640 -0.669156 -34.755382 124.221937 -57.392045 -153.589363 2.815300 2.361796 -3.135217 -3.099531 16.162497 -13.618916 -35.598091 2.481398 29.678214 -95.139276 -61.017931 137.443032 11.455811 4.154764 -3.783662 -11.729207 -66.758011 5.928310 -85.035351 81.891020 -92.941648 -4.353848 -7.713831 6.571412 0.316137 -0.809214 0.145214 11.150999 -64.544160 -10.226897 8.288889 85.847484 12.979792 -0.938625 -11.498511 0.912603 0.009454 0.039380 -0.052366
-132.344808 51.789439 -55.504182 176.244693 -15.759596 1.382876 -1.944701 13.854742 1.159864 -0.157630 1.151925 0.153064 -0.276355 1.909315 0.262010 -1.536117 12.369893 1.485732 -3.464920 18.712243 -1.659301 -3.295628 -5.854997 -1.002391 5.192277 16.410942 9.776866 35.935107 -0.610638 -34.816205 124.189795 -57.396877 -153.606463 2.875908 2.328386 -3.175476 -3.113384 16.155474 -13.623902 -35.590721 2.528557 29.724166 -95.179321 -61.016661 137.524159 11.463590 4.183955 -3.824086 -11.728360 -66.787016 5.915080 -85.016061 81.889719 -92.926042 -4.342730 -7.698258 6.573572 0.306891 -0.810837 0.138140 11.156841 -64.568069 -10.263731 8.057376 85.837963 12.753186 -0.912002 -11.449415 0.909633 0.017953 0.011289 -0.060542
-132.344710 51.788862 -55.499995 176.249998 -15.746856 1.393588 -1.938326 13.873383 1.147885 -0.157175 1.154929 0.152600 -0.279659 1.917780 0.262096 -1.525860 12.381525 1.477763 -3.470974 18.743924 -1.669796 -3.303597 -5.856504 -0.997300 5.197756 16.407850 9.771198 35.967588 -0.583912 -34.880631 124.156002 -57.391978 -153.623703 2.918884 2.307382 -3.227072 -3.126622 16.125204 -13.616417 -35.592082 2.546776 29.750706 -95.185331 -61.019241 137.551204 11.463457 4.177687 -3.808018 -11.714280 -66.803434 5.893680 -85.005289 81.889826 -92.913844 -4.339493 -7.687391 6.580586 0.300951 -0.809858 0.127968 11.041204 -64.584258 -10.192147 8.071569 85.822044 12.730853 -0.888607 -11.423224 0.891484 0.010333 0.017124 -0.051802
-132.345293 51.787865 -55.494237 176.263007 -15.724950 1.406148 -1.938011 13.879829 1.132393 -0.164610 1.142228 0.154111 -0.256475 1.977877 0.253609 -1.535034 12.358777 1.477757 -3.477011 18.776329 -1.680524 -3.313150 -5.855081 -0.992950 5.221859 16.437771 9.745537 35.967750 -0.639107 -34.920211 124.106534 -57.372454 -153.588941 2.944296 2.287000 -3.273634 -3.140418 16.095190 -13.608431 -35.591292 2.559929 29.777708 -95.188378 -61.023081 137.571153 11.461247 4.165365 -3.782734 -11.699801 -66.828624 5.865574 -84.977968 81.893562 -92.885914 -4.338403 -7.681739 6.582744 0.297304 -0.802642 0.125670 11.007301 -64.607973 -10.189533 8.067543 85.805718 12.707288 -0.883886 -11.381900 0.885528 0.009104 0.013271 -0.042394
-132.343302 51.787123 -55.489595 176.272384 -15.711087 1.405321 -1.930002 13.892591 1.132216 -0.172695 1.131344 0.154952 -0.248460 1.996979 0.251646 -1.533177 12.373991 1.471990 -3.485170 18.797230 -1.688216 -3.320367 -5.831408 -0.999412 5.236021 16.442392 9.733764 35.977745 -0.652511 -34.971173 124.095546 -57.374422 -153.624465 2.988897 2.258947 -3.293946 -3.155026 16.091383 -13.614040 -35.593006 2.555168 29.828097 -95.167591 -61.029782 137.567565 11.473000 4.147466 -3.776351 -11.712367 -66.842677 5.872104 -84.950791 81.891750 -92.856204 -4.335288 -7.668096 6.584163 0.304513 -0.804029 0.123249 10.947460 -64.626866 -10.158763 7.887065 85.797944 12.519283 -0.861655 -11.347720 0.870889 0.009519 0.012909 -0.035155
-132.341998 51.786512 -55.485844 176.284118 -15.702409 1.408516 -1.933743 13.896185 1.126836 -0.166012 1.149483 0.152663 -0.255180 1.982737 0.253892 -1.532931 12.381083 1.469786 -3.489728 18.846576 -1.705498 -3.326888 -5.799957 -1.009228 5.250742 16.461127 9.719398 35.996880 -0.643103 -35.031934 124.091519 -57.384691 -153.680160 3.029050 2.232725 -3.315291 -3.166356 16.134152 -13.656427 -35.597679 2.544150 29.914625 -95.135282 -61.035598 137.558184 11.472187 4.125791 -3.752138 -11.711620 -66.853136 5.862533 -84.936998 81.887297 -92.841118 -4.328275 -7.655152 6.586434 0.307886 -0.807643 0.122164 10.904806 -64.637073 -10.147385 7.804740 85.785911 12.433079 -0.843072 -11.317550 0.855635 0.004698 0.034410 -0.022403
